<?xml version="1.0" encoding="UTF-8"?>
<svg id="a" data-name="Layer 1" xmlns="http://www.w3.org/2000/svg" viewBox="0 0 16 16">
  <rect y="2.23" width="16" height="10.29" fill="#fff" stroke-width="0"/>
  <g>
    <g>
      <polygon points="7.36 3.61 5.84 3.61 5.84 6.56 2.88 6.56 2.88 3.61 1.36 3.61 1.36 7.36 7.36 7.36 7.36 3.61" stroke-width="0"/>
      <path d="M13.51,6.97c-.35-.19-.9-.37-1.63-.54-.74-.17-1.2-.34-1.39-.5-.15-.13-.23-.28-.23-.46,0-.19.08-.35.24-.47.25-.18.59-.27,1.03-.27s.75.08.96.25c.21.17.35.45.42.83l1.51-.07c-.02-.69-.27-1.24-.75-1.65-.48-.41-1.18-.62-2.12-.62-.58,0-1.07.09-1.48.26-.41.17-.72.43-.94.76-.22.33-.32.69-.32,1.07,0,.59.23,1.1.69,1.51.11.1.24.19.41.28h4.14c-.15-.15-.33-.28-.53-.39Z" stroke-width="0"/>
      <path d="M14.04,7.36c.11.11.21.23.29.37.2.32.3.72.3,1.19,0,.43-.12.83-.36,1.21-.24.38-.58.65-1.01.84-.44.18-.98.27-1.63.27-.95,0-1.68-.22-2.18-.66-.51-.44-.81-1.08-.91-1.92l1.47-.14c.09.49.27.86.54,1.09.27.23.64.35,1.1.35.49,0,.85-.1,1.1-.31.25-.21.37-.45.37-.72,0-.18-.05-.33-.16-.45-.1-.12-.29-.23-.54-.32-.18-.06-.58-.17-1.21-.33-.54-.13-.98-.29-1.3-.47h-2.55v3.75h-1.51v-3.28h-2.97v3.28h-1.51v-3.75H0v5.15h16v-5.15h-1.96Z" stroke-width="0"/>
    </g>
    <rect x="7.66" y="7" width=".75" height=".75" fill="#fff" stroke-width="0"/>
    <rect x="7.66" y="7" width=".75" height=".38" stroke-width="0"/>
  </g>
  <rect y="2.23" width="16" height="10.29" fill="none" stroke="#000" stroke-miterlimit="10" stroke-width=".1"/>
</svg>